<?xml version="1.0" standalone="no"?>
<!DOCTYPE svg PUBLIC "-//W3C//DTD SVG 20010904//EN"
 "http://www.w3.org/TR/2001/REC-SVG-20010904/DTD/svg10.dtd">
<svg version="1.0" xmlns="http://www.w3.org/2000/svg"
 width="512.000000pt" height="512.000000pt" viewBox="0 0 512.000000 512.000000"
 preserveAspectRatio="xMidYMid meet">
<metadata>
Created by potrace 1.14, written by Peter Selinger 2001-2017
</metadata>
<g transform="translate(0.000000,512.000000) scale(0.100000,-0.100000)"
fill="#000000" stroke="none">
<path d="M0 2560 l0 -2560 2560 0 2560 0 0 2560 0 2560 -2560 0 -2560 0 0
-2560z m5110 895 c0 -910 -2 -1655 -4 -1655 -2 0 -381 218 -843 484 l-838 484
-6 -446 c-5 -411 -8 -455 -28 -545 -24 -108 -53 -193 -96 -277 -146 -288 -435
-477 -813 -531 -111 -15 -443 -6 -537 15 -212 48 -390 134 -527 255 l-47 42
45 77 c26 42 91 156 146 252 56 96 106 181 113 188 10 11 21 6 59 -27 156
-135 295 -191 474 -191 205 0 362 90 443 255 57 117 59 147 57 777 l-3 572
-1345 777 -1345 776 -3 187 -2 186 2550 0 2550 0 0 -1655z m-3717 -2636 c755
-436 1376 -796 1381 -800 6 -5 -595 -9 -1377 -9 l-1387 0 0 800 c0 440 3 800
6 800 3 0 623 -356 1377 -791z"/>
</g>
</svg>
