<?xml version="1.0" standalone="no"?>
<!DOCTYPE svg PUBLIC "-//W3C//DTD SVG 20010904//EN"
 "http://www.w3.org/TR/2001/REC-SVG-20010904/DTD/svg10.dtd">
<svg version="1.0" xmlns="http://www.w3.org/2000/svg"
 width="512.000000pt" height="512.000000pt" viewBox="0 0 512.000000 512.000000"
 preserveAspectRatio="xMidYMid meet">
<metadata>
Created by potrace 1.14, written by Peter Selinger 2001-2017
</metadata>
<g transform="translate(0.000000,512.000000) scale(0.100000,-0.100000)"
fill="#000000" stroke="none">
<path d="M2415 5038 c-3 -7 -9 -62 -14 -123 -5 -60 -16 -128 -25 -150 -35 -84
-106 -181 -181 -248 -41 -38 -82 -82 -90 -97 -21 -40 -35 -46 -212 -90 -277
-70 -358 -143 -577 -523 -170 -297 -195 -358 -246 -615 -28 -143 -33 -192 -22
-239 5 -24 8 -43 5 -43 -2 0 -44 38 -93 84 -101 96 -191 153 -305 193 -71 25
-93 28 -205 28 -181 0 -235 -28 -313 -158 -75 -124 -97 -305 -57 -463 30 -118
71 -193 156 -283 60 -64 91 -87 157 -120 46 -23 119 -72 167 -111 47 -39 110
-84 140 -100 51 -26 366 -136 455 -159 l40 -11 17 -87 c50 -257 136 -412 276
-497 103 -61 433 -180 671 -240 79 -20 96 -28 103 -47 15 -40 1 -65 -71 -130
-43 -38 -81 -83 -100 -118 -66 -125 -118 -331 -128 -508 -5 -99 -4 -113 10
-113 9 0 19 5 22 10 4 6 10 79 14 164 7 147 9 155 44 232 20 43 41 100 47 125
17 79 28 100 104 178 81 84 96 107 96 147 0 15 7 32 17 39 9 7 13 17 9 24 -10
15 -53 33 -86 37 -14 1 -108 21 -210 44 -354 80 -589 189 -664 309 -13 20 -33
63 -45 96 -29 78 -81 291 -81 332 0 42 -5 44 -191 94 -276 73 -332 98 -474
211 -49 39 -124 87 -165 106 -140 65 -261 219 -300 382 -56 242 17 479 174
563 36 19 56 22 161 22 194 -1 323 -56 498 -212 34 -30 77 -63 94 -71 18 -9
35 -24 39 -34 3 -10 11 -18 17 -18 18 0 155 -103 207 -155 25 -25 53 -45 63
-45 21 0 22 9 1 24 -8 6 -16 19 -17 28 -2 9 -57 56 -124 106 -119 89 -121 91
-132 142 -13 63 -14 96 -2 119 6 10 17 74 26 142 26 205 55 279 220 570 117
204 175 287 251 358 105 99 232 158 386 180 78 11 121 31 145 68 10 15 59 68
110 118 138 135 152 167 209 463 4 21 8 19 43 -25 57 -73 253 -254 313 -290
95 -58 150 -66 463 -68 255 -1 286 -3 347 -22 296 -93 505 -254 721 -554 88
-122 151 -252 181 -370 28 -113 54 -405 37 -422 -15 -15 -129 -26 -286 -26
-71 -1 -180 -6 -242 -12 -127 -11 -403 -73 -414 -91 -19 -30 14 -30 108 1 122
40 252 57 508 66 183 6 265 14 321 30 17 5 22 0 33 -35 7 -25 46 -83 97 -146
110 -135 160 -215 234 -366 51 -106 97 -234 87 -245 -2 -1 -84 -7 -183 -13
-340 -19 -598 -47 -904 -100 -338 -58 -911 -193 -1130 -267 -74 -24 -153 -48
-175 -52 -25 -4 -40 -12 -40 -21 0 -32 95 -14 320 60 650 213 1680 379 2064
333 l53 -6 -4 -54 c-4 -40 -19 -81 -63 -165 -52 -101 -73 -129 -219 -287 -215
-233 -276 -278 -558 -405 -46 -21 -83 -45 -94 -61 -16 -25 -16 -28 6 -75 13
-27 76 -118 142 -202 191 -246 250 -333 343 -503 48 -88 94 -168 103 -178 24
-27 36 -5 22 40 -17 54 -46 102 -193 323 -148 222 -166 246 -260 351 -146 163
-174 219 -125 253 12 9 64 30 114 46 151 51 199 87 532 407 142 137 202 201
202 217 0 12 13 53 30 92 16 39 37 101 47 140 15 57 22 70 41 72 12 2 22 7 22
11 0 12 -23 31 -39 31 -11 0 -23 25 -39 83 -26 96 -119 290 -190 397 -27 41
-82 116 -122 165 -103 128 -103 129 -106 280 -8 374 -141 663 -443 966 -119
119 -220 191 -357 255 -178 84 -200 87 -534 88 -332 2 -345 4 -467 86 -56 37
-210 190 -301 299 -45 52 -59 61 -67 39z"/>
<path d="M3030 3106 c-280 -68 -732 -213 -860 -276 -30 -15 -94 -42 -142 -60
-56 -21 -88 -38 -88 -47 0 -25 62 -7 202 59 199 93 727 261 878 280 137 16
155 21 155 43 0 28 -32 28 -145 1z"/>
</g>
</svg>
